<svg width="17" height="16" viewBox="0 0 17 16" fill="none" xmlns="http://www.w3.org/2000/svg">
  <path
    d="M5.64764 5.33333C6.75221 5.33333 7.64764 4.4379 7.64764 3.33333C7.64764 2.22876 6.75221 1.33333 5.64764 1.33333C4.54307 1.33333 3.64764 2.22876 3.64764 3.33333C3.64764 4.4379 4.54307 5.33333 5.64764 5.33333Z"
    fill="#6F6E73" />
  <path
    d="M7.64762 8H4.91296C4.42557 8.00014 3.95501 8.17824 3.58968 8.50085C3.22435 8.82346 2.98939 9.26838 2.92896 9.752L2.50162 13.168C2.47818 13.3556 2.4949 13.5461 2.55069 13.7267C2.60648 13.9074 2.70006 14.0741 2.82521 14.2159C2.95036 14.3576 3.10422 14.4711 3.27659 14.5488C3.44895 14.6265 3.63588 14.6667 3.82496 14.6667H6.98096"
    fill="#6F6E73" />
  <path
    d="M15.4602 13.168L15.0336 9.752C14.9731 9.26815 14.738 8.82305 14.3724 8.50041C14.0067 8.17777 13.5359 7.99981 13.0482 8H11.5789C11.0915 8.00014 10.621 8.17824 10.2556 8.50085C9.8903 8.82347 9.65535 9.26838 9.59491 9.752L9.16758 13.168C9.14413 13.3557 9.16087 13.5462 9.2167 13.7269C9.27252 13.9076 9.36616 14.0744 9.49138 14.2161C9.61661 14.3579 9.77055 14.4713 9.943 14.549C10.1154 14.6267 10.3024 14.6668 10.4916 14.6667H14.1369C14.326 14.6667 14.5129 14.6265 14.6853 14.5488C14.8576 14.4711 15.0115 14.3576 15.1367 14.2159C15.2618 14.0741 15.3554 13.9074 15.4112 13.7267C15.467 13.5461 15.4837 13.3556 15.4602 13.168Z"
    fill="#6F6E73" />
  <path
    d="M12.3143 5.33333C13.4188 5.33333 14.3143 4.4379 14.3143 3.33333C14.3143 2.22876 13.4188 1.33333 12.3143 1.33333C11.2097 1.33333 10.3143 2.22876 10.3143 3.33333C10.3143 4.4379 11.2097 5.33333 12.3143 5.33333Z"
    fill="#6F6E73" />
</svg>